<?xml version="1.0" standalone="no"?>
<!DOCTYPE svg PUBLIC "-//W3C//DTD SVG 20010904//EN"
 "http://www.w3.org/TR/2001/REC-SVG-20010904/DTD/svg10.dtd">
<svg version="1.0" xmlns="http://www.w3.org/2000/svg"
 width="2048.000000pt" height="2048.000000pt" viewBox="0 0 2048.000000 2048.000000"
 preserveAspectRatio="xMidYMid meet">

<g transform="translate(0.000000,2048.000000) scale(0.100000,-0.100000)"
fill="#000000" stroke="none">
<path d="M1270 20105 c-252 -42 -484 -174 -650 -366 -111 -129 -186 -274 -233
-453 l-22 -81 0 -8970 0 -8970 26 -95 c53 -187 137 -336 272 -477 135 -140
315 -246 514 -301 l98 -27 4818 -3 4817 -2 0 3825 0 3825 -1290 0 -1290 0 2
1493 3 1492 1288 3 1287 2 0 1163 c0 1188 5 1398 40 1697 149 1276 747 2243
1722 2789 487 272 1047 430 1702 481 476 37 2051 -21 2629 -96 l47 -7 0 -1343
0 -1343 -957 -4 c-1041 -4 -1009 -3 -1253 -63 -255 -63 -451 -179 -585 -347
-100 -125 -170 -281 -211 -472 -45 -206 -46 -250 -51 -1377 l-5 -1078 1480 0
1480 0 -5 -37 c-3 -21 -89 -693 -192 -1493 l-186 -1455 -1288 -3 -1287 -2 0
-3825 0 -3825 2554 0 c1764 0 2578 3 2632 11 504 70 889 475 934 983 14 153
14 17619 0 17772 -45 508 -430 913 -934 983 -122 17 -17806 13 -17906 -4z"/>
</g>
</svg>
