<?xml version="1.0" standalone="no"?>
<!DOCTYPE svg PUBLIC "-//W3C//DTD SVG 20010904//EN"
 "http://www.w3.org/TR/2001/REC-SVG-20010904/DTD/svg10.dtd">
<svg version="1.0" xmlns="http://www.w3.org/2000/svg"
 width="370.000000pt" height="249.000000pt" viewBox="0 0 370.000000 249.000000"
 preserveAspectRatio="xMidYMid meet">

<g transform="translate(0.000000,249.000000) scale(0.100000,-0.100000)"
fill="#000000" stroke="none">
<path d="M1480 1644 c-102 -30 -194 -58 -205 -63 -11 -6 -36 -14 -55 -20 -19
-6 -82 -27 -140 -47 -58 -20 -131 -46 -163 -56 -43 -15 -57 -24 -53 -35 3 -8
6 -19 6 -24 0 -5 11 -9 24 -9 34 0 42 -17 17 -38 -14 -11 -18 -22 -13 -30 7
-10 34 -1 120 40 110 53 131 68 91 68 -11 0 -17 5 -14 10 3 6 17 10 29 10 14
0 30 10 40 25 9 14 25 25 35 25 10 0 26 10 34 23 15 20 16 20 12 2 -2 -11 -6
-28 -10 -37 -4 -10 -5 -18 -2 -18 3 0 54 29 113 65 60 36 143 79 184 94 101
40 168 71 150 70 -8 -1 -98 -25 -200 -55z"/>
<path d="M2298 1533 c7 -3 16 -2 19 1 4 3 -2 6 -13 5 -11 0 -14 -3 -6 -6z"/>
<path d="M2210 1520 c-20 -6 -21 -8 -5 -8 11 0 31 4 45 8 20 6 21 8 5 8 -11 0
-31 -4 -45 -8z"/>
<path d="M2148 1503 c6 -2 18 -2 25 0 6 3 1 5 -13 5 -14 0 -19 -2 -12 -5z"/>
<path d="M2108 1493 c7 -3 16 -2 19 1 4 3 -2 6 -13 5 -11 0 -14 -3 -6 -6z"/>
<path d="M780 1403 c-538 -248 -695 -364 -750 -549 -25 -83 41 -199 140 -249
110 -56 327 -83 550 -69 l135 9 0 94 0 95 60 17 c33 10 63 15 67 11 4 -4 8
-47 10 -97 3 -84 2 -90 -17 -90 -18 0 -20 8 -23 68 -3 64 -4 68 -25 65 -20 -3
-22 -9 -24 -81 l-1 -78 46 6 c26 3 64 8 84 11 29 4 39 2 44 -10 5 -13 9 -12
23 6 20 23 57 19 48 -6 -7 -18 -5 -18 333 -56 146 -16 290 -33 320 -36 30 -4
52 -4 48 0 -6 7 -353 61 -548 86 -101 13 -137 24 -110 34 8 3 85 17 170 31
177 30 326 61 521 111 75 18 145 34 156 34 20 0 21 -8 28 -310 5 -196 11 -310
17 -310 7 0 8 58 4 167 -3 93 -7 235 -8 317 l-3 148 93 28 c51 15 95 24 98 19
2 -4 10 -173 16 -374 6 -201 15 -365 20 -365 11 0 10 63 -7 429 -7 173 -12
318 -9 323 3 4 16 8 29 8 23 0 24 -3 24 -77 1 -114 39 -695 47 -702 4 -3 5 84
3 194 l-4 200 255 -3 c154 -3 291 1 345 8 124 15 277 48 290 61 7 8 4 10 -10
6 -158 -44 -299 -57 -609 -57 -148 -1 -270 1 -272 2 -1 2 -4 63 -5 136 -2 124
-1 134 20 156 l21 23 -22 -1 c-20 -1 -23 4 -23 34 0 30 5 37 33 51 19 8 33 17
31 20 -6 11 23 49 33 43 8 -5 9 -1 5 10 -4 10 -7 28 -7 41 0 15 -7 26 -20 30
-27 9 -25 24 5 35 29 11 33 30 8 31 -11 0 -7 5 10 11 23 8 31 7 41 -7 15 -20
56 -12 56 11 0 10 -7 13 -27 9 -21 -5 -16 0 17 18 58 30 66 63 18 72 -18 3
-64 5 -103 3 -62 -3 -70 -5 -70 -23 0 -16 9 -21 40 -26 l40 -5 -28 -12 c-15
-7 -39 -15 -54 -18 l-26 -7 5 126 c3 93 1 128 -8 131 -9 3 -14 -25 -19 -102
-3 -59 -7 -120 -8 -137 -2 -26 -7 -30 -42 -38 -22 -5 -74 -19 -115 -32 -185
-58 -637 -161 -669 -152 -9 2 -22 -2 -28 -8 -6 -7 -33 -16 -60 -19 -73 -11
-81 -15 -76 -35 3 -14 -3 -20 -25 -24 -38 -8 -58 -51 -42 -91 10 -26 13 -28
50 -22 50 8 56 -15 9 -40 -85 -44 -149 77 -82 156 l26 31 -34 -6 c-83 -14
-236 -35 -262 -35 -37 0 -26 15 20 31 21 7 51 21 68 31 27 18 28 19 5 13 -14
-4 -61 -25 -105 -47 -69 -35 -94 -41 -185 -50 -58 -6 -181 -8 -275 -5 -168 5
-244 18 -252 44 -7 21 97 112 222 193 192 126 235 158 235 178 0 13 23 30 76
56 57 28 74 40 65 49 -9 9 -16 8 -31 -1 -31 -19 -41 -15 -34 15 5 19 2 30 -11
40 -21 14 -13 29 19 35 22 3 35 28 14 27 -7 0 -29 -8 -48 -16z m-155 -113 c4
-13 15 -20 30 -20 32 0 40 -16 15 -30 -17 -9 -20 -17 -15 -41 7 -32 -3 -37
-35 -17 -15 10 -22 10 -32 0 -21 -21 -30 -13 -23 18 5 22 3 32 -9 36 -25 10
-19 34 8 34 16 0 27 7 31 20 3 11 10 20 15 20 5 0 12 -9 15 -20z m-252 -140
c3 -14 14 -20 31 -20 30 0 33 -11 10 -31 -11 -9 -14 -22 -10 -41 6 -31 -1 -35
-30 -14 -17 13 -22 13 -43 -1 -24 -15 -24 -15 -18 16 5 24 2 33 -13 41 -28 15
-25 30 6 30 17 0 28 6 31 20 3 11 11 20 18 20 7 0 15 -9 18 -20z m2052 -80
c-27 -12 -43 -12 -25 0 8 5 22 9 30 9 10 0 8 -3 -5 -9z m-97 -48 c6 -9 12 -34
12 -56 0 -38 -3 -43 -39 -60 -22 -10 -46 -16 -54 -13 -8 3 -23 0 -33 -7 -11
-8 -35 -16 -54 -19 -19 -3 -44 -7 -55 -9 -18 -3 -21 4 -25 60 -3 35 -2 69 1
74 10 15 39 2 39 -17 0 -8 5 -15 10 -15 6 0 10 6 10 13 0 25 26 51 45 44 16
-7 16 -9 -2 -40 -18 -30 -18 -33 -3 -50 24 -25 27 -22 26 27 -1 30 5 50 18 64
29 33 78 35 104 4z m-275 -39 c3 -5 7 -37 8 -73 l4 -65 -40 -8 c-22 -4 -53
-10 -70 -13 -16 -3 -44 -12 -61 -20 -18 -8 -45 -11 -61 -8 -27 5 -30 9 -32 53
-1 38 3 51 23 70 33 31 89 27 94 -7 4 -28 -23 -62 -50 -62 -10 0 -18 -5 -18
-10 0 -10 62 -5 82 6 3 3 4 29 1 59 -5 50 -4 55 14 55 13 0 23 -8 26 -21 7
-26 40 -22 45 6 7 43 22 59 35 38z m401 -23 c-5 -5 -24 -13 -42 -16 -44 -9
-44 19 1 33 34 10 58 0 41 -17z m-2264 -25 c7 -18 17 -25 35 -25 30 0 32 -11
5 -28 -17 -10 -19 -16 -9 -33 14 -27 4 -35 -25 -20 -19 10 -27 10 -44 0 -26
-17 -37 -7 -23 20 10 17 8 23 -9 33 -27 17 -25 28 5 28 18 0 28 7 35 25 5 14
12 25 15 25 3 0 10 -11 15 -25z m1595 -80 c4 -30 5 -62 1 -71 -8 -21 -41 -13
-40 9 2 15 -3 17 -26 12 -35 -8 -60 15 -60 55 0 28 28 50 34 27 13 -41 17 -48
29 -45 6 3 13 19 15 36 2 23 8 32 22 32 15 0 20 -10 25 -55z m-155 5 c11 -11
17 -26 14 -34 -3 -8 -1 -24 6 -35 17 -33 -26 -71 -80 -71 l-40 0 0 58 c0 59
11 81 50 95 25 9 29 8 50 -13z m-118 -94 l3 -59 -42 -12 c-57 -17 -83 0 -83
53 0 48 22 79 63 90 44 13 54 -1 59 -72z m-362 -3 c0 -21 3 -62 6 -90 6 -44 4
-54 -11 -59 -25 -10 -35 12 -35 79 0 55 -1 58 -22 55 -21 -3 -23 -9 -28 -83
-4 -62 -8 -80 -20 -80 -17 0 -33 84 -28 150 3 37 5 40 48 51 81 22 90 19 90
-23z m-699 -73 c26 0 34 -19 14 -34 -13 -9 -16 -20 -12 -38 9 -33 -2 -42 -25
-21 -16 14 -23 15 -38 5 -28 -17 -32 -15 -28 12 1 13 -5 33 -15 44 -20 22 -8
38 19 28 10 -4 18 4 25 22 l11 27 15 -22 c9 -13 24 -23 34 -23z m292 20 c3
-12 14 -20 25 -20 29 0 38 -19 17 -34 -13 -9 -16 -20 -11 -39 7 -30 -3 -34
-34 -15 -15 10 -22 10 -32 0 -19 -19 -31 -14 -26 13 3 16 -1 30 -13 41 -22 20
-16 34 15 34 15 0 26 7 29 20 3 11 10 20 15 20 5 0 12 -9 15 -20z"/>
<path d="M2254 996 c-8 -22 -1 -59 13 -63 16 -6 35 34 28 57 -7 23 -33 27 -41
6z"/>
<path d="M2122 909 c2 -7 10 -15 17 -17 8 -3 12 1 9 9 -2 7 -10 15 -17 17 -8
3 -12 -1 -9 -9z"/>
<path d="M1850 895 c-14 -16 -10 -18 14 -9 9 3 16 10 16 15 0 14 -16 11 -30
-6z"/>
<path d="M1990 880 c-8 -5 -11 -12 -8 -16 10 -9 38 3 38 16 0 12 -10 13 -30 0z"/>
<path d="M1577 833 c-12 -12 -7 -22 8 -17 8 4 15 10 15 15 0 11 -14 12 -23 2z"/>
<path d="M1583 783 c-18 -6 -16 -23 1 -23 17 0 30 16 19 23 -5 2 -14 2 -20 0z"/>
<path d="M1437 793 c-10 -10 -8 -61 2 -68 13 -7 20 7 25 44 3 29 -10 41 -27
24z"/>
<path d="M2034 1335 c-82 -12 -352 -100 -341 -112 2 -2 51 9 108 25 57 16 166
42 242 58 75 15 137 32 137 36 0 11 -36 9 -146 -7z"/>
<path d="M2220 1307 c0 -10 -9 -21 -21 -25 -18 -7 -19 -10 -5 -21 8 -7 12 -19
9 -27 -6 -16 12 -19 22 -4 4 7 13 6 27 -1 18 -10 19 -8 13 11 -4 12 -1 27 5
35 10 12 9 15 -8 15 -12 0 -26 8 -31 18 -10 16 -10 16 -11 -1z"/>
<path d="M2851 1316 c12 -10 60 -16 54 -6 -3 5 -18 10 -32 10 -15 0 -24 -2
-22 -4z"/>
<path d="M2025 1248 c-10 -10 -13 -18 -7 -18 7 0 12 -6 12 -12 0 -7 11 -13 24
-13 13 0 22 4 19 8 -3 4 0 13 5 20 8 9 4 15 -12 23 -17 8 -26 6 -41 -8z"/>
<path d="M1884 1216 c-15 -16 4 -43 27 -38 17 3 34 42 19 42 -5 0 -14 2 -22 5
-7 2 -18 -1 -24 -9z"/>
<path d="M3260 1202 c0 -5 11 -13 24 -16 13 -3 31 -9 40 -12 9 -3 16 -2 16 4
0 5 -10 12 -22 15 -13 2 -31 8 -40 12 -10 4 -18 3 -18 -3z"/>
<path d="M1430 1157 c-90 -39 -311 -154 -325 -169 -5 -6 4 -3 21 5 17 9 67 30
110 47 92 36 300 151 272 150 -2 0 -37 -15 -78 -33z"/>
<path d="M2200 1183 c-79 -9 -392 -65 -485 -88 -235 -57 -565 -174 -565 -200
0 -2 58 16 128 41 199 68 783 198 952 212 79 6 95 10 98 25 3 14 -4 17 -45 15
-26 0 -64 -3 -83 -5z"/>
<path d="M1755 1170 c-3 -5 -3 -14 0 -20 10 -17 32 -11 38 10 4 15 0 20 -13
20 -11 0 -22 -4 -25 -10z"/>
<path d="M1640 1125 c0 -8 7 -15 15 -15 8 0 15 7 15 15 0 8 -7 15 -15 15 -8 0
-15 -7 -15 -15z"/>
<path d="M3264 1132 c3 -5 14 -73 26 -153 18 -121 20 -170 15 -309 -3 -91 -8
-176 -11 -190 -4 -23 -15 -29 -122 -58 -183 -49 -254 -62 -421 -73 -204 -13
-219 -16 -86 -18 147 -1 325 22 485 63 72 18 133 30 135 26 10 -17 -8 -40 -39
-48 -28 -7 -31 -12 -33 -53 l-2 -44 12 40 c9 29 19 41 35 43 21 3 22 0 20 -50
-5 -90 16 -64 31 39 9 63 14 194 15 368 1 228 -2 282 -17 348 -13 53 -23 77
-33 77 -8 0 -13 -4 -10 -8z"/>
<path d="M3078 1108 c5 -5 16 -8 23 -6 8 3 3 7 -10 11 -17 4 -21 3 -13 -5z"/>
<path d="M1546 1102 c-3 -6 -1 -14 5 -17 15 -10 25 3 12 16 -7 7 -13 7 -17 1z"/>
<path d="M1446 1073 c-11 -11 -6 -23 9 -23 8 0 15 4 15 9 0 13 -16 22 -24 14z"/>
<path d="M1990 1049 c-52 -10 -113 -23 -135 -29 -37 -8 -36 -9 15 -4 81 8 291
52 250 52 -19 0 -78 -8 -130 -19z"/>
<path d="M3242 670 c0 -19 2 -27 5 -17 2 9 2 25 0 35 -3 9 -5 1 -5 -18z"/>
<path d="M1730 590 c36 -11 52 -11 45 0 -3 6 -21 10 -38 9 -31 -1 -31 -1 -7
-9z"/>
<path d="M1897 370 c3 -52 7 -97 9 -99 8 -8 3 115 -6 154 -6 27 -6 10 -3 -55z"/>
<path d="M1615 430 c-52 -8 -61 -14 -74 -52 l-12 -33 31 38 c30 35 35 37 88
37 62 0 112 -23 132 -60 6 -12 14 -19 17 -17 8 8 -26 66 -45 75 -25 13 -91 19
-137 12z"/>
<path d="M1613 335 c-47 -33 -56 -142 -19 -222 28 -59 45 -71 107 -74 24 -2
52 -7 61 -13 12 -7 21 -6 34 4 15 14 15 15 -7 21 -16 4 -23 12 -21 25 16 120
14 153 -8 198 -33 69 -98 95 -147 61z m61 -1 c18 -7 22 -34 6 -34 -6 0 -22
-11 -35 -25 -30 -29 -35 -95 -8 -116 15 -13 15 -12 5 8 -17 32 -15 57 9 87 13
17 30 26 49 26 23 0 30 -7 44 -40 21 -52 21 -124 0 -155 -13 -19 -25 -25 -54
-25 -32 0 -42 6 -66 38 -24 31 -29 48 -33 109 -3 69 -2 74 27 103 33 33 33 33
56 24z"/>
<path d="M1260 337 c0 -15 215 -61 233 -50 6 4 -31 15 -83 24 -52 9 -107 20
-122 24 -16 4 -28 5 -28 2z"/>
<path d="M2605 270 c-27 -5 -71 -9 -97 -9 l-48 -1 0 -49 c0 -28 5 -53 10 -56
6 -4 10 11 10 38 l0 44 47 7 c53 7 66 -1 61 -35 -2 -20 -10 -24 -45 -27 -53
-4 -57 -22 -5 -22 45 0 72 24 72 63 0 21 6 28 28 33 15 3 36 9 47 14 18 8 18
9 -5 8 -14 0 -47 -4 -75 -8z"/>
<path d="M1911 198 c0 -37 2 -69 7 -71 4 -3 6 18 4 46 -5 86 -9 96 -11 25z"/>
<path d="M2190 90 l-25 -8 28 -1 c15 -1 27 4 27 9 0 6 -1 10 -2 9 -2 -1 -14
-5 -28 -9z"/>
</g>
</svg>
